<svg width="28" height="28" viewBox="0 0 28 28" fill="none" xmlns="http://www.w3.org/2000/svg">
<mask id="mask0_23_46" style="mask-type:luminance" maskUnits="userSpaceOnUse" x="0" y="0" width="28" height="28">
<path d="M27.2 0H0V28H27.2V0Z" fill="white"/>
</mask>
<g mask="url(#mask0_23_46)">
<path d="M13.6 28C21.1111 28 27.2 21.732 27.2 14C27.2 6.26801 21.1111 0 13.6 0C6.08893 0 0 6.26801 0 14C0 21.732 6.08893 28 13.6 28Z" fill="#A2CC3A"/>
<path fill-rule="evenodd" clip-rule="evenodd" d="M6.12003 13.2801C2.71003 10.8601 4.17003 4.8101 7.78003 2.9701C10.38 1.6501 13.46 2.4501 14.17 0.350098C15.7 1.2301 14.9 2.6001 13.99 2.7401C14.74 2.7901 15.08 2.4401 15.28 1.9401C16.53 1.9701 17.63 2.1601 18.59 2.5801C22.56 4.2901 24.37 10.8901 20.63 13.3201C22.53 16.1001 22.46 19.3001 20.63 22.0901C20.52 23.0401 20.06 24.3301 19.18 24.9101C19.25 25.1301 19.25 25.3101 19.26 25.5401C18.22 26.2801 15.76 26.3801 14.75 25.5501V25.4401C13.85 25.5601 12.89 25.5401 11.98 25.4401V25.5601C10.95 26.3101 8.58003 26.2501 7.49003 25.5501C7.49003 25.3301 7.50003 25.1401 7.57003 24.9201C6.69003 24.3501 6.24003 23.0401 6.12003 22.1101C4.21003 19.4601 4.29003 15.9701 6.12003 13.3001V13.2801Z" fill="black"/>
<path fill-rule="evenodd" clip-rule="evenodd" d="M11.23 14.6101C10.09 16.7701 8.1 18.1401 7.83 20.6901C7.72 21.7301 7.8 23.1801 8.98 23.7101C9.74 23.3901 10.63 23.6001 11.17 24.1701C12.27 24.4301 14.49 24.4201 15.53 24.1701C16.08 23.5801 16.99 23.3801 17.76 23.7201C18.94 23.1901 19.02 21.7401 18.91 20.7101C18.64 18.1501 16.64 16.7901 15.5 14.6201C13.98 14.8301 12.75 14.8601 11.22 14.6401L11.23 14.6101ZM10.85 13.3801C12.41 13.6701 14.42 13.6701 15.98 13.3801C19 12.8201 21.18 11.0001 20.51 8.02005C20.2 6.64005 18.34 4.80005 16.84 5.89005C15.85 6.61005 15.96 7.99005 15.92 9.05005C15.76 12.7701 11.1 12.7701 10.93 9.05005C10.88 7.99005 11 6.61005 10.01 5.89005C8.5 4.80005 6.65 6.64005 6.34 8.02005C5.67 11.0001 7.85 12.8201 10.87 13.3801H10.85Z" fill="white"/>
<path fill-rule="evenodd" clip-rule="evenodd" d="M12.35 10.1302C13.15 10.4002 13.66 10.3902 14.45 10.1302C14.28 9.96023 14.13 9.79023 13.98 9.60023C13.38 8.87023 13.42 8.87023 12.82 9.60023C12.68 9.78023 12.52 9.96023 12.35 10.1302Z" fill="#A2CC3A"/>
<path fill-rule="evenodd" clip-rule="evenodd" d="M18.17 8.24023C18.42 8.24023 18.66 8.33023 18.85 8.48023C19.04 8.63023 19.15 8.85023 19.17 9.07023C18.51 8.95023 17.82 8.95023 17.16 9.07023C17.18 8.84023 17.3 8.63023 17.48 8.48023C17.67 8.33023 17.91 8.24023 18.16 8.24023H18.17ZM8.65001 8.24023C8.90001 8.24023 9.15001 8.33023 9.33001 8.48023C9.52001 8.63023 9.63001 8.85023 9.65001 9.07023C8.99001 8.95023 8.30001 8.95023 7.64001 9.07023C7.66001 8.84023 7.78001 8.63023 7.96001 8.48023C8.14001 8.33023 8.39002 8.24023 8.64002 8.24023H8.65001Z" fill="#151A1B"/>
<path fill-rule="evenodd" clip-rule="evenodd" d="M20.28 21.6898C19.92 20.2398 18.08 16.7398 18.53 15.0498C18.63 17.3798 20.32 20.1598 20.28 21.6898ZM6.56003 21.6898C6.92003 20.2398 8.76003 16.7398 8.31003 15.0498C8.20003 17.3798 6.52003 20.1598 6.56003 21.6898Z" fill="white"/>
<path fill-rule="evenodd" clip-rule="evenodd" d="M14.1299 10.3701C13.5999 10.5001 13.2499 10.5101 12.7099 10.3801C13.3499 11.0601 13.4599 11.0801 14.1299 10.3701ZM17.1699 23.9301C17.4599 23.9801 17.7299 24.0901 17.9599 24.2501C18.3699 24.5201 18.6699 24.9201 18.7499 25.3201C17.8999 25.9201 15.9299 25.7701 15.1599 25.4001C15.4799 24.6401 15.8999 24.2201 16.3399 24.0401C16.5999 23.9301 16.8899 23.9001 17.1799 23.9401L17.1699 23.9301ZM9.51994 23.9301C9.22994 23.9801 8.95994 24.0901 8.72994 24.2501C8.31994 24.5201 8.01994 24.9201 7.93994 25.3201C8.78994 25.9201 10.7599 25.7701 11.5299 25.4001C11.2099 24.6401 10.7899 24.2201 10.3499 24.0401C10.0899 23.9301 9.79994 23.9001 9.50994 23.9401L9.51994 23.9301Z" fill="#A2CC3A"/>
<path fill-rule="evenodd" clip-rule="evenodd" d="M17.3 24.5298C17.25 24.9998 16.92 25.4898 16.52 25.6598C16.49 25.6698 16.45 25.6898 16.41 25.6998C17.25 25.7798 18.22 25.6998 18.75 25.3298C18.68 24.9498 18.4 24.5698 18.01 24.2998L17.96 24.2698C17.73 24.1098 17.46 23.9998 17.18 23.9498C17.28 24.1298 17.32 24.3398 17.3 24.5398V24.5298ZM10.07 24.6798C10.03 25.1098 9.80002 25.5098 9.40002 25.7198C10.21 25.7598 11.09 25.6198 11.54 25.3998C11.47 25.2398 11.4 25.0898 11.31 24.9398C11.03 24.4698 10.7 24.1798 10.36 24.0398C10.23 23.9798 10.09 23.9498 9.95002 23.9298C10.05 24.1698 10.09 24.4298 10.07 24.6798ZM13.48 10.5498C13.49 10.6298 13.51 10.8198 13.45 10.8998C13.61 10.8798 13.78 10.7498 14.03 10.4798C13.85 10.5298 13.67 10.5498 13.48 10.5498ZM13.47 9.06982C13.51 9.40982 13.35 9.91982 13.47 10.0998C13.56 10.2498 14.1 10.1398 14.33 9.99982C14.21 9.87982 14.1 9.73982 13.99 9.59982C13.74 9.28982 13.6 9.10982 13.48 9.06982H13.47Z" fill="black"/>
</g>
</svg>
