<svg width="130" height="38" viewBox="0 0 130 38" fill="none" xmlns="http://www.w3.org/2000/svg">
<mask id="mask0_21_27" style="mask-type:luminance" maskUnits="userSpaceOnUse" x="0" y="5" width="28" height="28">
<path d="M27.2 5H0V33H27.2V5Z" fill="white"/>
</mask>
<g mask="url(#mask0_21_27)">
<path d="M13.6 33C21.1111 33 27.2 26.732 27.2 19C27.2 11.268 21.1111 5 13.6 5C6.08893 5 0 11.268 0 19C0 26.732 6.08893 33 13.6 33Z" fill="#A2CC3A"/>
<path fill-rule="evenodd" clip-rule="evenodd" d="M6.12003 18.2801C2.71003 15.8601 4.17003 9.8101 7.78003 7.9701C10.38 6.6501 13.46 7.4501 14.17 5.3501C15.7 6.2301 14.9 7.6001 13.99 7.7401C14.74 7.7901 15.08 7.4401 15.28 6.9401C16.53 6.9701 17.63 7.1601 18.59 7.5801C22.56 9.2901 24.37 15.8901 20.63 18.3201C22.53 21.1001 22.46 24.3001 20.63 27.0901C20.52 28.0401 20.06 29.3301 19.18 29.9101C19.25 30.1301 19.25 30.3101 19.26 30.5401C18.22 31.2801 15.76 31.3801 14.75 30.5501V30.4401C13.85 30.5601 12.89 30.5401 11.98 30.4401V30.5601C10.95 31.3101 8.58003 31.2501 7.49003 30.5501C7.49003 30.3301 7.50003 30.1401 7.57003 29.9201C6.69003 29.3501 6.24003 28.0401 6.12003 27.1101C4.21003 24.4601 4.29003 20.9701 6.12003 18.3001V18.2801Z" fill="black"/>
<path fill-rule="evenodd" clip-rule="evenodd" d="M11.23 19.6101C10.09 21.7701 8.1 23.1401 7.83 25.6901C7.72 26.7301 7.8 28.1801 8.98 28.7101C9.74 28.3901 10.63 28.6001 11.17 29.1701C12.27 29.4301 14.49 29.4201 15.53 29.1701C16.08 28.5801 16.99 28.3801 17.76 28.7201C18.94 28.1901 19.02 26.7401 18.91 25.7101C18.64 23.1501 16.64 21.7901 15.5 19.6201C13.98 19.8301 12.75 19.8601 11.22 19.6401L11.23 19.6101ZM10.85 18.3801C12.41 18.6701 14.42 18.6701 15.98 18.3801C19 17.8201 21.18 16.0001 20.51 13.0201C20.2 11.6401 18.34 9.80005 16.84 10.8901C15.85 11.6101 15.96 12.9901 15.92 14.0501C15.76 17.7701 11.1 17.7701 10.93 14.0501C10.88 12.9901 11 11.6101 10.01 10.8901C8.5 9.80005 6.65 11.6401 6.34 13.0201C5.67 16.0001 7.85 17.8201 10.87 18.3801H10.85Z" fill="white"/>
<path fill-rule="evenodd" clip-rule="evenodd" d="M12.35 15.1302C13.15 15.4002 13.66 15.3902 14.45 15.1302C14.28 14.9602 14.13 14.7902 13.98 14.6002C13.38 13.8702 13.42 13.8702 12.82 14.6002C12.68 14.7802 12.52 14.9602 12.35 15.1302Z" fill="#A2CC3A"/>
<path fill-rule="evenodd" clip-rule="evenodd" d="M18.17 13.2402C18.42 13.2402 18.66 13.3302 18.85 13.4802C19.04 13.6302 19.15 13.8502 19.17 14.0702C18.51 13.9502 17.82 13.9502 17.16 14.0702C17.18 13.8402 17.3 13.6302 17.48 13.4802C17.67 13.3302 17.91 13.2402 18.16 13.2402H18.17ZM8.65001 13.2402C8.90001 13.2402 9.15001 13.3302 9.33001 13.4802C9.52001 13.6302 9.63001 13.8502 9.65001 14.0702C8.99001 13.9502 8.30001 13.9502 7.64001 14.0702C7.66001 13.8402 7.78001 13.6302 7.96001 13.4802C8.14001 13.3302 8.39002 13.2402 8.64002 13.2402H8.65001Z" fill="#151A1B"/>
<path fill-rule="evenodd" clip-rule="evenodd" d="M20.28 26.6898C19.92 25.2398 18.08 21.7398 18.53 20.0498C18.63 22.3798 20.32 25.1598 20.28 26.6898ZM6.56003 26.6898C6.92003 25.2398 8.76003 21.7398 8.31003 20.0498C8.20003 22.3798 6.52003 25.1598 6.56003 26.6898Z" fill="white"/>
<path fill-rule="evenodd" clip-rule="evenodd" d="M14.1299 15.3701C13.5999 15.5001 13.2499 15.5101 12.7099 15.3801C13.3499 16.0601 13.4599 16.0801 14.1299 15.3701ZM17.1699 28.9301C17.4599 28.9801 17.7299 29.0901 17.9599 29.2501C18.3699 29.5201 18.6699 29.9201 18.7499 30.3201C17.8999 30.9201 15.9299 30.7701 15.1599 30.4001C15.4799 29.6401 15.8999 29.2201 16.3399 29.0401C16.5999 28.9301 16.8899 28.9001 17.1799 28.9401L17.1699 28.9301ZM9.51994 28.9301C9.22994 28.9801 8.95994 29.0901 8.72994 29.2501C8.31994 29.5201 8.01994 29.9201 7.93994 30.3201C8.78994 30.9201 10.7599 30.7701 11.5299 30.4001C11.2099 29.6401 10.7899 29.2201 10.3499 29.0401C10.0899 28.9301 9.79994 28.9001 9.50994 28.9401L9.51994 28.9301Z" fill="#A2CC3A"/>
<path fill-rule="evenodd" clip-rule="evenodd" d="M17.3 29.5298C17.25 29.9998 16.92 30.4898 16.52 30.6598C16.49 30.6698 16.45 30.6898 16.41 30.6998C17.25 30.7798 18.22 30.6998 18.75 30.3298C18.68 29.9498 18.4 29.5698 18.01 29.2998L17.96 29.2698C17.73 29.1098 17.46 28.9998 17.18 28.9498C17.28 29.1298 17.32 29.3398 17.3 29.5398V29.5298ZM10.07 29.6798C10.03 30.1098 9.80002 30.5098 9.40002 30.7198C10.21 30.7598 11.09 30.6198 11.54 30.3998C11.47 30.2398 11.4 30.0898 11.31 29.9398C11.03 29.4698 10.7 29.1798 10.36 29.0398C10.23 28.9798 10.09 28.9498 9.95002 28.9298C10.05 29.1698 10.09 29.4298 10.07 29.6798ZM13.48 15.5498C13.49 15.6298 13.51 15.8198 13.45 15.8998C13.61 15.8798 13.78 15.7498 14.03 15.4798C13.85 15.5298 13.67 15.5498 13.48 15.5498ZM13.47 14.0698C13.51 14.4098 13.35 14.9198 13.47 15.0998C13.56 15.2498 14.1 15.1398 14.33 14.9998C14.21 14.8798 14.1 14.7398 13.99 14.5998C13.74 14.2898 13.6 14.1098 13.48 14.0698H13.47Z" fill="black"/>
</g>
<path d="M54.3941 9.57575V28H51.0295L43.0139 16.4039H42.8789V28H38.9836V9.57575H42.4021L50.3548 21.1629H50.5167V9.57575H54.3941ZM73.8686 16.026H69.9283C69.8563 15.5163 69.7094 15.0634 69.4875 14.6676C69.2656 14.2658 68.9807 13.9239 68.6328 13.642C68.285 13.3602 67.8831 13.1443 67.4273 12.9943C66.9775 12.8444 66.4887 12.7694 65.961 12.7694C65.0074 12.7694 64.1767 13.0063 63.469 13.4801C62.7613 13.9479 62.2125 14.6316 61.8227 15.5312C61.4329 16.4249 61.2379 17.5104 61.2379 18.7879C61.2379 20.1013 61.4329 21.2049 61.8227 22.0985C62.2185 22.9921 62.7703 23.6668 63.478 24.1226C64.1857 24.5784 65.0044 24.8063 65.934 24.8063C66.4557 24.8063 66.9385 24.7374 67.3824 24.5994C67.8322 24.4615 68.231 24.2606 68.5789 23.9967C68.9267 23.7268 69.2146 23.3999 69.4425 23.0161C69.6764 22.6323 69.8383 22.1944 69.9283 21.7027L73.8686 21.7206C73.7667 22.5663 73.5118 23.3819 73.1039 24.1676C72.7021 24.9473 72.1593 25.646 71.4756 26.2637C70.7979 26.8755 69.9883 27.3613 69.0467 27.7211C68.1111 28.075 67.0525 28.2519 65.871 28.2519C64.2277 28.2519 62.7583 27.8801 61.4628 27.1364C60.1734 26.3927 59.1538 25.3161 58.4041 23.9067C57.6604 22.4973 57.2886 20.791 57.2886 18.7879C57.2886 16.7787 57.6664 15.0694 58.4221 13.66C59.1778 12.2506 60.2034 11.1771 61.4988 10.4394C62.7943 9.6957 64.2517 9.32386 65.871 9.32386C66.9385 9.32386 67.9281 9.4738 68.8397 9.77367C69.7574 10.0735 70.57 10.5114 71.2777 11.0871C71.9854 11.6569 72.5612 12.3556 73.005 13.1832C73.4548 14.0109 73.7427 14.9585 73.8686 16.026ZM77.5076 28V9.57575H79.1899V18.0232H89.6435V9.57575H91.3258V28H89.6435V19.5346H79.1899V28H77.5076ZM108.491 9.57575H110.173V21.7746C110.173 23.0281 109.879 24.1496 109.291 25.1392C108.703 26.1228 107.885 26.8995 106.835 27.4692C105.792 28.033 104.577 28.3149 103.192 28.3149C101.812 28.3149 100.598 28.03 99.5483 27.4602C98.4988 26.8905 97.6801 26.1138 97.0924 25.1302C96.5046 24.1466 96.2107 23.0281 96.2107 21.7746V9.57575H97.893V21.6577C97.893 22.6353 98.1119 23.5079 98.5497 24.2756C98.9876 25.0372 99.6023 25.637 100.394 26.0748C101.192 26.5126 102.124 26.7315 103.192 26.7315C104.259 26.7315 105.192 26.5126 105.99 26.0748C106.787 25.637 107.402 25.0372 107.834 24.2756C108.272 23.5079 108.491 22.6353 108.491 21.6577V9.57575ZM115.062 28V9.57575H121.279C122.478 9.57575 123.477 9.78567 124.274 10.2055C125.078 10.6253 125.681 11.1981 126.083 11.9238C126.484 12.6495 126.685 13.4741 126.685 14.3977C126.685 15.1654 126.556 15.8221 126.299 16.3679C126.041 16.9137 125.69 17.3545 125.246 17.6903C124.802 18.0262 124.307 18.2691 123.762 18.419V18.563C124.355 18.605 124.931 18.8149 125.489 19.1927C126.047 19.5646 126.505 20.0863 126.865 20.758C127.225 21.4298 127.405 22.2334 127.405 23.169C127.405 24.0986 127.198 24.9293 126.784 25.661C126.371 26.3867 125.735 26.9594 124.877 27.3793C124.026 27.7931 122.94 28 121.621 28H115.062ZM116.745 26.4886H121.621C123.042 26.4886 124.091 26.1738 124.769 25.544C125.453 24.9143 125.795 24.1226 125.795 23.169C125.795 22.4673 125.624 21.8316 125.282 21.2618C124.946 20.6861 124.469 20.2303 123.852 19.8944C123.24 19.5586 122.52 19.3906 121.692 19.3906H116.745V26.4886ZM116.745 17.8973H121.432C122.157 17.8973 122.793 17.7473 123.339 17.4474C123.885 17.1476 124.31 16.7337 124.616 16.206C124.922 15.6782 125.075 15.0754 125.075 14.3977C125.075 13.4201 124.757 12.6255 124.121 12.0137C123.486 11.396 122.538 11.0871 121.279 11.0871H116.745V17.8973Z" fill="black"/>
</svg>
